# xmcd CD database file
#
# Track frame offsets:
#	150
#	17025
#	18075
#	35211
#	48348
#	67716
#	86676
#	104333
#	124669
#	145478
#	165067
#	183347
#	198647
#	215759
#	234287
#	252679
#	275958
#	295765
#	311139
#	329030
#
# Disc length: 4616 seconds
#
# Revision: 0
# Processed by: cddbd v1.5.2PL0 Copyright (c) Steve Scherf et al.
# Submitted via: CDex 1.51
#
DISCID=2e120614
DTITLE=The Real Book Play-Along - Volume II
DYEAR=2010
DGENRE=Jazz
TTITLE0=Jingles
TTITLE1=Jitterbug Waltz
TTITLE2=The Jody Grind
TTITLE3=Jump, Jive An' Wail
TTITLE4=June Is Bustin' Out All Over
TTITLE5=Just A Settin' And A Rockin'
TTITLE6=Just In Time
TTITLE7=Just The Way You Are
TTITLE8=Killer Joe
TTITLE9=Last Night When We Were Young
TTITLE10=The Last Time I Saw Paris
TTITLE11=Let's Get Lost
TTITLE12=Like Young
TTITLE13=Little Sunflower
TTITLE14=Look For The Silver Lining
TTITLE15=Lover
TTITLE16=Lover Man (Oh, Where Can You Be?)
TTITLE17=Make Someone Happy
TTITLE18=Manteca
TTITLE19=Memories Of You
EXTD=YEAR: 2010
EXTT0=
EXTT1=
EXTT2=
EXTT3=
EXTT4=
EXTT5=
EXTT6=
EXTT7=
EXTT8=
EXTT9=
EXTT10=
EXTT11=
EXTT12=
EXTT13=
EXTT14=
EXTT15=
EXTT16=
EXTT17=
EXTT18=
EXTT19=
PLAYORDER=
